<svg width="140" height="140" viewBox="0 0 140 140" fill="none" xmlns="http://www.w3.org/2000/svg">
<circle cx="70" cy="70" r="70" fill="#2B2B2B"/>
<path d="M62.8644 41.3142C58.9201 41.3142 55.6929 44.5414 55.6929 48.4857V55.6571H41.9954C41.5651 55.6571 41.35 55.944 41.35 56.3026V73.5858C41.35 75.5938 42.9277 77.1715 44.9357 77.1715H95.136C97.144 77.1715 98.7217 75.5938 98.7217 73.5858V56.3026C98.7217 55.8723 98.4348 55.6571 98.0763 55.6571H84.3788V48.4857C84.3788 44.5414 81.1516 41.3142 77.2073 41.3142H62.8644ZM62.8644 48.4857H77.2073V55.6571H62.8644V48.4857ZM41.35 83.6975V98.0405C41.35 98.399 41.6369 98.6859 41.9954 98.6859H98.0046C98.3631 98.6859 98.65 98.399 98.65 98.0405V83.6975C97.5026 84.1278 96.3551 84.343 95.0643 84.343H44.864C43.5732 84.343 42.4257 84.0561 41.2783 83.6975H41.35Z" fill="white"/>
</svg>
