<svg width="117" height="38" viewBox="0 0 117 38" fill="none" xmlns="http://www.w3.org/2000/svg">
<g clip-path="url(#clip0_137_2741)">
<path d="M27 26.3351V12L29.688 8V23.828H37.008V26.3L27 26.3351Z" fill="#E0E0E0"/>
<path d="M40.0001 31.676C39.5681 31.676 39.1441 31.628 38.7281 31.532C38.3121 31.436 37.9041 31.272 37.5041 31.04L38.1041 28.784C38.3521 28.944 38.6241 29.064 38.9201 29.144C39.2161 29.224 39.4801 29.264 39.7121 29.264C40.2721 29.264 40.7121 29.132 41.0321 28.868C41.3521 28.604 41.6041 28.196 41.7881 27.644L42.1841 26.492L37.5041 14.42H40.3961L43.6841 23.636L46.8881 14.42H49.6841L44.5481 28.016C44.1801 28.968 43.7681 29.708 43.3121 30.236C42.8561 30.772 42.3521 31.144 41.8001 31.352C41.2481 31.568 40.6481 31.676 40.0001 31.676Z" fill="#E0E0E0"/>
<path d="M53.0079 31.676C52.5759 31.676 52.1519 31.628 51.7359 31.532C51.3199 31.436 50.9119 31.272 50.5119 31.04L51.1119 28.784C51.3599 28.944 51.6319 29.064 51.9279 29.144C52.2239 29.224 52.4879 29.264 52.7199 29.264C53.2799 29.264 53.7199 29.132 54.0399 28.868C54.3599 28.604 54.6119 28.196 54.7959 27.644L55.1919 26.492L50.5119 14.42H53.4039L56.6919 23.636L59.8959 14.42H62.6919L57.5559 28.016C57.1879 28.968 56.7759 29.708 56.3199 30.236C55.8639 30.772 55.3599 31.144 54.8079 31.352C54.2559 31.568 53.6559 31.676 53.0079 31.676Z" fill="#E0E0E0"/>
<path d="M67.9478 26.3L63.5078 14.42H66.3997L69.6878 24.032H69.2918L72.5197 14.42H75.3278L70.9717 26.3H67.9478Z" fill="#E0E0E0"/>
<path d="M82.8062 26.66C81.5662 26.66 80.4582 26.376 79.4822 25.808C78.5142 25.232 77.7542 24.468 77.2022 23.516C76.6502 22.556 76.3742 21.504 76.3742 20.36C76.3742 19.512 76.5302 18.712 76.8422 17.96C77.1622 17.2 77.6102 16.528 78.1862 15.944C78.7702 15.36 79.4542 14.9 80.2382 14.564C81.0222 14.228 81.8822 14.06 82.8182 14.06C84.0582 14.06 85.1622 14.348 86.1302 14.924C87.1062 15.492 87.8702 16.256 88.4222 17.216C88.9742 18.168 89.2502 19.216 89.2502 20.36C89.2502 21.2 89.0902 22 88.7702 22.76C88.4582 23.52 88.0142 24.192 87.4382 24.776C86.8622 25.36 86.1822 25.82 85.3982 26.156C84.6142 26.492 83.7502 26.66 82.8062 26.66ZM82.8062 24.32C83.5422 24.32 84.1942 24.16 84.7622 23.84C85.3382 23.512 85.7902 23.052 86.1182 22.46C86.4462 21.868 86.6102 21.168 86.6102 20.36C86.6102 19.552 86.4462 18.852 86.1182 18.26C85.7902 17.66 85.3382 17.2 84.7622 16.88C84.1942 16.56 83.5422 16.4 82.8062 16.4C82.0702 16.4 81.4142 16.56 80.8382 16.88C80.2702 17.2 79.8222 17.66 79.4942 18.26C79.1742 18.852 79.0142 19.552 79.0142 20.36C79.0142 21.168 79.1782 21.868 79.5062 22.46C79.8342 23.052 80.2822 23.512 80.8502 23.84C81.4262 24.16 82.0782 24.32 82.8062 24.32Z" fill="#E0E0E0"/>
<path d="M91.902 26.3V14.42H94.542V16.064C94.99 15.32 95.534 14.8 96.174 14.504C96.814 14.2 97.502 14.048 98.238 14.048C98.478 14.048 98.706 14.06 98.922 14.084C99.138 14.108 99.346 14.144 99.546 14.192L99.198 16.916C98.958 16.844 98.714 16.788 98.466 16.748C98.218 16.708 97.97 16.688 97.722 16.688C96.802 16.688 96.042 16.972 95.442 17.54C94.842 18.1 94.542 18.864 94.542 19.832V26.3H91.902Z" fill="#E0E0E0"/>
<path d="M105.046 26.66C104.222 26.66 103.498 26.508 102.874 26.204C102.25 25.892 101.762 25.456 101.41 24.896C101.066 24.328 100.894 23.66 100.894 22.892C100.894 22.244 101.058 21.66 101.386 21.14C101.714 20.612 102.222 20.176 102.91 19.832C103.606 19.488 104.498 19.26 105.586 19.148C106.674 19.028 107.982 19.044 109.51 19.196L109.558 21.02C108.47 20.868 107.534 20.804 106.75 20.828C105.966 20.852 105.322 20.952 104.818 21.128C104.322 21.296 103.954 21.524 103.714 21.812C103.482 22.092 103.366 22.416 103.366 22.784C103.366 23.36 103.57 23.804 103.978 24.116C104.394 24.428 104.962 24.584 105.682 24.584C106.298 24.584 106.85 24.472 107.338 24.248C107.826 24.024 108.21 23.708 108.49 23.3C108.778 22.892 108.922 22.412 108.922 21.86V18.704C108.922 18.176 108.81 17.72 108.586 17.336C108.362 16.944 108.022 16.64 107.566 16.424C107.11 16.208 106.542 16.1 105.862 16.1C105.238 16.1 104.622 16.196 104.014 16.388C103.406 16.572 102.826 16.864 102.274 17.264L101.53 15.32C102.274 14.816 103.05 14.46 103.858 14.252C104.666 14.044 105.442 13.94 106.186 13.94C107.29 13.94 108.234 14.116 109.018 14.468C109.81 14.812 110.418 15.336 110.842 16.04C111.266 16.736 111.478 17.616 111.478 18.68V26.3H109.102V24.896C108.702 25.464 108.146 25.9 107.434 26.204C106.722 26.508 105.926 26.66 105.046 26.66Z" fill="#E0E0E0"/>
<path d="M6.45333 26.3692L6.4532 18.7916L10.7191 14.522L10.7191 23.671L14.5991 23.671L14.5991 31.1977L13.6468 32.081L12.6948 32.9644L6.45333 26.3692Z" fill="#E0E0E0"/>
<path d="M15.4244 15.7656L12.6948 13.7656L9.79988 10.7656L9.79988 2.26563L19.8935 12.3799L19.8935 26.198L15.4244 30.5021L15.4244 15.7656Z" fill="#E0E0E0"/>
</g>
<defs>
<clipPath id="clip0_137_2741">
<rect width="117" height="38" fill="white"/>
</clipPath>
</defs>
</svg>
